# xmcd CD database file generated by Grip 3.1.4
# 
# Track frame offsets:
#       150
#       16924
#       33290
#       48507
#       64769
#       81790
#       97293
#       111295
#       129713
#       142598
#       158013
#       171868
#       186850
#       201668
#       220100
#       232743
# 
# Disc length: 3313 seconds
# 
# Revision: 1
# Processed by: cddbd v1.4PL0 Copyright (c) Steve Scherf et al.
# Submitted via: Grip 3.1.4
# 
DISCID=da0cef10
DTITLE=Oswaldir e Carlos Magrão - Os 16 Grandes Sucessos
DYEAR=2003
DGENRE=Other
TTITLE0=Desassossegos
TTITLE1=Herança Nativa
TTITLE2=Xucros Desejos
TTITLE3=Cantiga de Rio e Remo
TTITLE4=Querência Amada
TTITLE5=Nós
TTITLE6=Tempero de Amor
TTITLE7=Prece
TTITLE8=Uma Gauderiada
TTITLE9=Tropa de Osso
TTITLE10=Herdeiro da Pampa Pobre
TTITLE11=Outras Fronteiras
TTITLE12=Um Pito
TTITLE13=Lago Verde Azul
TTITLE14=Surungo no Campo Fundo
TTITLE15=Índia Guarani
EXTD=YEAR: 2003
EXTT0=
EXTT1=
EXTT2=
EXTT3=
EXTT4=
EXTT5=
EXTT6=
EXTT7=
EXTT8=
EXTT9=
EXTT10=
EXTT11=
EXTT12=
EXTT13=
EXTT14=
EXTT15=
PLAYORDER=
